<?xml version="1.0" encoding="UTF-8" standalone="no"?>
<!-- Created with Inkscape (http://www.inkscape.org/) -->

<svg
   xmlns:dc="http://purl.org/dc/elements/1.1/"
   xmlns:cc="http://creativecommons.org/ns#"
   xmlns:rdf="http://www.w3.org/1999/02/22-rdf-syntax-ns#"
   xmlns:svg="http://www.w3.org/2000/svg"
   xmlns="http://www.w3.org/2000/svg"
   xmlns:sodipodi="http://sodipodi.sourceforge.net/DTD/sodipodi-0.dtd"
   xmlns:inkscape="http://www.inkscape.org/namespaces/inkscape"
   width="473.56158"
   height="491.49258"
   id="svg2"
   version="1.1"
   inkscape:version="0.48.4 r9939"
   sodipodi:docname="spatial_scales.svg">
  <defs
     id="defs4">
    <marker
       inkscape:stockid="Arrow1Lend"
       orient="auto"
       refY="0"
       refX="0"
       id="Arrow1Lend"
       style="overflow:visible">
      <path
         id="path4220"
         d="M 0,0 5,-5 -12.5,0 5,5 0,0 z"
         style="fill-rule:evenodd;stroke:#000000;stroke-width:1pt"
         transform="matrix(-0.8,0,0,-0.8,-10,0)"
         inkscape:connector-curvature="0" />
    </marker>
  </defs>
  <sodipodi:namedview
     id="base"
     pagecolor="#ffffff"
     bordercolor="#666666"
     borderopacity="1.0"
     inkscape:pageopacity="0.0"
     inkscape:pageshadow="2"
     inkscape:zoom="0.98994949"
     inkscape:cx="79.850509"
     inkscape:cy="273.70758"
     inkscape:document-units="px"
     inkscape:current-layer="g3088"
     showgrid="false"
     inkscape:window-width="1920"
     inkscape:window-height="1030"
     inkscape:window-x="0"
     inkscape:window-y="0"
     inkscape:window-maximized="1"
     fit-margin-top="0"
     fit-margin-left="0"
     fit-margin-right="0"
     fit-margin-bottom="0" />
  <metadata
     id="metadata7">
    <rdf:RDF>
      <cc:Work
         rdf:about="">
        <dc:format>image/svg+xml</dc:format>
        <dc:type
           rdf:resource="http://purl.org/dc/dcmitype/StillImage" />
        <dc:title></dc:title>
      </cc:Work>
    </rdf:RDF>
  </metadata>
  <g
     inkscape:label="Layer 1"
     inkscape:groupmode="layer"
     id="layer1"
     transform="translate(-121.40325,-468.24807)">
    <g
       id="g3088"
       transform="translate(-399.47916,291.28183)">
      <title
         id="title3090">Layer 1</title>
      <g
         id="svg_23"
         transform="matrix(0.41914362,0,0,0.41914362,457.35649,446.28423)">
        <path
           d="m 404.97745,331.3913 c 10.88067,0 19.70251,-8.8219 19.70251,-19.70307 0,-10.88064 -8.82184,-19.70202 -19.70251,-19.70202 -10.88117,0 -19.70206,8.82138 -19.70206,19.70202 0,10.88117 8.82089,19.70307 19.70206,19.70307 z"
           id="svg_24"
           inkscape:connector-curvature="0"
           style="fill:#000000;stroke:#000000" />
        <path
           d="m 384.85852,335.73996 c -13.95267,0 -25.173,11.37906 -25.173,25.57202 l 0,60.49231 c 0,11.76071 17.21191,11.76071 17.21191,0 l 0,-55.31375 4.07413,0 0,151.45734 c 0,15.72387 22.9198,15.26116 22.9198,0 l 0,-87.91956 3.94772,0 0,87.91956 c 0,15.26116 23.04614,15.72387 23.04614,0 l 0,-151.45734 3.97913,0 0,55.31375 c 0,11.85092 17.1221,11.85092 17.09085,0 l 0,-60.13043 c 0,-13.08759 -10.16324,-25.90686 -25.48233,-25.90686 l -41.61435,-0.027 z"
           id="svg_25"
           inkscape:connector-curvature="0"
           style="fill:#000000;stroke:#000000" />
      </g>
      <g
         id="g4747"
         transform="translate(10.926086,17.925858)">
        <text
           sodipodi:linespacing="125%"
           id="text3162"
           y="598.44574"
           x="773.2356"
           style="font-size:16px;font-style:normal;font-variant:normal;font-weight:normal;font-stretch:normal;line-height:125%;letter-spacing:0px;word-spacing:0px;fill:#000000;fill-opacity:1;stroke:none;font-family:Kreon;-inkscape-font-specification:Kreon"
           xml:space="preserve"><tspan
             style="font-size:40px;font-style:normal;font-variant:normal;font-weight:normal;font-stretch:normal;font-family:Yanone Kaffeesatz;-inkscape-font-specification:Yanone Kaffeesatz"
             y="598.44574"
             x="773.2356"
             id="tspan3164"
             sodipodi:role="line">Microscopic scale</tspan></text>
        <text
           sodipodi:linespacing="125%"
           id="text3166"
           y="631.74017"
           x="825.76349"
           style="font-size:16px;font-style:normal;font-variant:normal;font-weight:normal;font-stretch:normal;line-height:125%;letter-spacing:0px;word-spacing:0px;fill:#000000;fill-opacity:1;stroke:none;font-family:Kreon;-inkscape-font-specification:Kreon"
           xml:space="preserve"><tspan
             style="font-size:28px;font-style:italic;font-variant:normal;font-weight:normal;font-stretch:normal;font-family:Yanone Kaffeesatz;-inkscape-font-specification:Yanone Kaffeesatz"
             y="631.74017"
             x="825.76349"
             id="tspan3168"
             sodipodi:role="line">Individuals</tspan></text>
      </g>
      <g
         id="g4726"
         transform="translate(0,27.292152)">
        <path
           sodipodi:nodetypes="ccccccccccc"
           inkscape:connector-curvature="0"
           id="path3170-4"
           d="m 667.99795,299.55158 17.95779,17.68152 29.28503,-4.69665 18.51034,-14.36624 -4.33703,-12.5464 -2.56982,-10.38432 -16.8527,-7.45939 -19.22047,6.35392 -4.6957,13.10902 -15.59098,-2.33397 z"
           style="fill:none;stroke:#000000;stroke-width:0.54699415;stroke-linecap:butt;stroke-linejoin:miter;stroke-miterlimit:4;stroke-opacity:1;stroke-dasharray:1.09398835, 0.54699417;stroke-dashoffset:0" />
        <path
           sodipodi:nodetypes="ccccccccccc"
           inkscape:connector-curvature="0"
           id="path3170-4-4"
           d="m 531.09334,253.25353 7.18312,7.07261 11.71401,-1.87866 7.40414,-5.7465 -1.73481,-5.01856 -1.02793,-4.15373 -6.74108,-2.98375 -7.68819,2.54156 -1.87828,5.24361 -6.23639,-0.93359 z"
           style="fill:none;stroke:#000000;stroke-width:0.21879768;stroke-linecap:butt;stroke-linejoin:miter;stroke-miterlimit:4;stroke-opacity:1;stroke-dasharray:0.43759539, 0.21879769;stroke-dashoffset:0" />
        <path
           sodipodi:nodetypes="ccccccccccc"
           inkscape:connector-curvature="0"
           id="path3170-4-9"
           d="m 589.00023,236.75827 28.73247,28.29043 46.85605,-7.51464 29.61655,-22.98599 -6.93925,-20.07424 -4.11171,-16.61492 -26.96433,-11.93502 -30.75275,10.16627 -7.51312,20.97444 -24.94558,-3.73435 z"
           style="fill:none;stroke:#000000;stroke-width:0.87519073;stroke-linecap:butt;stroke-linejoin:miter;stroke-miterlimit:4;stroke-opacity:1;stroke-dasharray:1.75038156, 0.87519077;stroke-dashoffset:0" />
        <path
           sodipodi:nodetypes="ccccccccccc"
           inkscape:connector-curvature="0"
           id="path3170-4-99"
           d="m 521.15591,191.97289 17.95779,17.68152 29.28503,-4.69665 18.51034,-14.36624 -4.33703,-12.5464 -2.56982,-10.38432 -16.8527,-7.45939 -19.22047,6.35392 -4.6957,13.10902 -15.59098,-2.33397 z"
           style="fill:none;stroke:#000000;stroke-width:0.54699415;stroke-linecap:butt;stroke-linejoin:miter;stroke-miterlimit:4;stroke-opacity:1;stroke-dasharray:1.09398835, 0.54699417;stroke-dashoffset:0" />
        <path
           sodipodi:nodetypes="ccccccccccc"
           inkscape:connector-curvature="0"
           id="path3170-4-4-7"
           d="m 575.22704,313.00482 7.18312,7.07261 11.71401,-1.87866 7.40414,-5.7465 -1.73481,-5.01856 -1.02793,-4.15373 -6.74108,-2.98375 -7.68819,2.54156 -1.87828,5.24361 -6.23639,-0.93359 z"
           style="fill:none;stroke:#000000;stroke-width:0.21879768;stroke-linecap:butt;stroke-linejoin:miter;stroke-miterlimit:4;stroke-opacity:1;stroke-dasharray:0.43759539, 0.21879769;stroke-dashoffset:0" />
        <path
           sodipodi:nodetypes="ccccccccccc"
           inkscape:connector-curvature="0"
           id="path3170-4-4-0"
           d="m 642.90727,162.49208 7.18312,7.07261 11.71401,-1.87866 7.40414,-5.7465 -1.73481,-5.01856 -1.02793,-4.15373 -6.74108,-2.98375 -7.68819,2.54156 -1.87828,5.24361 -6.23639,-0.93359 z"
           style="fill:none;stroke:#000000;stroke-width:0.21879768;stroke-linecap:butt;stroke-linejoin:miter;stroke-miterlimit:4;stroke-opacity:1;stroke-dasharray:0.43759539, 0.21879769;stroke-dashoffset:0" />
        <path
           sodipodi:nodetypes="ccccccccccc"
           inkscape:connector-curvature="0"
           id="path3170-4-4-2"
           d="m 571.15909,277.42467 5.38734,5.30446 8.78551,-1.409 5.55311,-4.30987 -1.30111,-3.76392 -0.77095,-3.1153 -5.05581,-2.23781 -5.76614,1.90617 -1.40871,3.93271 -4.6773,-0.7002 z"
           style="fill:none;stroke:#000000;stroke-width:0.16409828;stroke-linecap:butt;stroke-linejoin:miter;stroke-miterlimit:4;stroke-opacity:1;stroke-dasharray:0.32819658, 0.16409829;stroke-dashoffset:0" />
      </g>
      <g
         id="g4699"
         transform="translate(-12.907395,0)">
        <path
           sodipodi:nodetypes="ccccccccccc"
           inkscape:connector-curvature="0"
           id="path3170"
           d="m 541.73116,470.82944 53.87339,53.04457 87.85507,-14.08996 55.53103,-43.09872 -13.01109,-37.63921 -7.70944,-31.15296 -50.55811,-22.37817 -57.66141,19.06176 -14.0871,39.32706 -46.77294,-7.0019 z"
           style="fill:none;stroke:#000000;stroke-width:1.64098251;stroke-linecap:butt;stroke-linejoin:miter;stroke-miterlimit:4;stroke-opacity:1;stroke-dasharray:3.28196511, 1.64098255;stroke-dashoffset:0" />
        <g
           transform="matrix(0.08313797,0,0,0.08313797,626.89316,368.97062)"
           id="svg_23-7">
          <path
             style="fill:#000000;stroke:#000000"
             inkscape:connector-curvature="0"
             id="svg_24-2"
             d="m 404.97745,331.3913 c 10.88067,0 19.70251,-8.8219 19.70251,-19.70307 0,-10.88064 -8.82184,-19.70202 -19.70251,-19.70202 -10.88117,0 -19.70206,8.82138 -19.70206,19.70202 0,10.88117 8.82089,19.70307 19.70206,19.70307 z" />
          <path
             style="fill:#000000;stroke:#000000"
             inkscape:connector-curvature="0"
             id="svg_25-2"
             d="m 384.85852,335.73996 c -13.95267,0 -25.173,11.37906 -25.173,25.57202 l 0,60.49231 c 0,11.76071 17.21191,11.76071 17.21191,0 l 0,-55.31375 4.07413,0 0,151.45734 c 0,15.72387 22.9198,15.26116 22.9198,0 l 0,-87.91956 3.94772,0 0,87.91956 c 0,15.26116 23.04614,15.72387 23.04614,0 l 0,-151.45734 3.97913,0 0,55.31375 c 0,11.85092 17.1221,11.85092 17.09085,0 l 0,-60.13043 c 0,-13.08759 -10.16324,-25.90686 -25.48233,-25.90686 l -41.61435,-0.027 z" />
        </g>
        <g
           transform="matrix(0.08313797,0,0,0.08313797,588.98379,402.67021)"
           id="svg_23-7-0">
          <path
             style="fill:#000000;stroke:#000000"
             inkscape:connector-curvature="0"
             id="svg_24-2-3"
             d="m 404.97745,331.3913 c 10.88067,0 19.70251,-8.8219 19.70251,-19.70307 0,-10.88064 -8.82184,-19.70202 -19.70251,-19.70202 -10.88117,0 -19.70206,8.82138 -19.70206,19.70202 0,10.88117 8.82089,19.70307 19.70206,19.70307 z" />
          <path
             style="fill:#000000;stroke:#000000"
             inkscape:connector-curvature="0"
             id="svg_25-2-4"
             d="m 384.85852,335.73996 c -13.95267,0 -25.173,11.37906 -25.173,25.57202 l 0,60.49231 c 0,11.76071 17.21191,11.76071 17.21191,0 l 0,-55.31375 4.07413,0 0,151.45734 c 0,15.72387 22.9198,15.26116 22.9198,0 l 0,-87.91956 3.94772,0 0,87.91956 c 0,15.26116 23.04614,15.72387 23.04614,0 l 0,-151.45734 3.97913,0 0,55.31375 c 0,11.85092 17.1221,11.85092 17.09085,0 l 0,-60.13043 c 0,-13.08759 -10.16324,-25.90686 -25.48233,-25.90686 l -41.61435,-0.027 z" />
        </g>
        <g
           transform="matrix(0.08313797,0,0,0.08313797,637.47111,420.85297)"
           id="svg_23-7-8">
          <path
             style="fill:#000000;stroke:#000000"
             inkscape:connector-curvature="0"
             id="svg_24-2-1"
             d="m 404.97745,331.3913 c 10.88067,0 19.70251,-8.8219 19.70251,-19.70307 0,-10.88064 -8.82184,-19.70202 -19.70251,-19.70202 -10.88117,0 -19.70206,8.82138 -19.70206,19.70202 0,10.88117 8.82089,19.70307 19.70206,19.70307 z" />
          <path
             style="fill:#000000;stroke:#000000"
             inkscape:connector-curvature="0"
             id="svg_25-2-47"
             d="m 384.85852,335.73996 c -13.95267,0 -25.173,11.37906 -25.173,25.57202 l 0,60.49231 c 0,11.76071 17.21191,11.76071 17.21191,0 l 0,-55.31375 4.07413,0 0,151.45734 c 0,15.72387 22.9198,15.26116 22.9198,0 l 0,-87.91956 3.94772,0 0,87.91956 c 0,15.26116 23.04614,15.72387 23.04614,0 l 0,-151.45734 3.97913,0 0,55.31375 c 0,11.85092 17.1221,11.85092 17.09085,0 l 0,-60.13043 c 0,-13.08759 -10.16324,-25.90686 -25.48233,-25.90686 l -41.61435,-0.027 z" />
        </g>
        <g
           transform="matrix(0.08313797,0,0,0.08313797,543.52693,430.95449)"
           id="svg_23-7-84">
          <path
             style="fill:#000000;stroke:#000000"
             inkscape:connector-curvature="0"
             id="svg_24-2-33"
             d="m 404.97745,331.3913 c 10.88067,0 19.70251,-8.8219 19.70251,-19.70307 0,-10.88064 -8.82184,-19.70202 -19.70251,-19.70202 -10.88117,0 -19.70206,8.82138 -19.70206,19.70202 0,10.88117 8.82089,19.70307 19.70206,19.70307 z" />
          <path
             style="fill:#000000;stroke:#000000"
             inkscape:connector-curvature="0"
             id="svg_25-2-5"
             d="m 384.85852,335.73996 c -13.95267,0 -25.173,11.37906 -25.173,25.57202 l 0,60.49231 c 0,11.76071 17.21191,11.76071 17.21191,0 l 0,-55.31375 4.07413,0 0,151.45734 c 0,15.72387 22.9198,15.26116 22.9198,0 l 0,-87.91956 3.94772,0 0,87.91956 c 0,15.26116 23.04614,15.72387 23.04614,0 l 0,-151.45734 3.97913,0 0,55.31375 c 0,11.85092 17.1221,11.85092 17.09085,0 l 0,-60.13043 c 0,-13.08759 -10.16324,-25.90686 -25.48233,-25.90686 l -41.61435,-0.027 z" />
        </g>
        <g
           transform="matrix(0.08313797,0,0,0.08313797,585.95333,452.16769)"
           id="svg_23-7-3">
          <path
             style="fill:#000000;stroke:#000000"
             inkscape:connector-curvature="0"
             id="svg_24-2-2"
             d="m 404.97745,331.3913 c 10.88067,0 19.70251,-8.8219 19.70251,-19.70307 0,-10.88064 -8.82184,-19.70202 -19.70251,-19.70202 -10.88117,0 -19.70206,8.82138 -19.70206,19.70202 0,10.88117 8.82089,19.70307 19.70206,19.70307 z" />
          <path
             style="fill:#000000;stroke:#000000"
             inkscape:connector-curvature="0"
             id="svg_25-2-1"
             d="m 384.85852,335.73996 c -13.95267,0 -25.173,11.37906 -25.173,25.57202 l 0,60.49231 c 0,11.76071 17.21191,11.76071 17.21191,0 l 0,-55.31375 4.07413,0 0,151.45734 c 0,15.72387 22.9198,15.26116 22.9198,0 l 0,-87.91956 3.94772,0 0,87.91956 c 0,15.26116 23.04614,15.72387 23.04614,0 l 0,-151.45734 3.97913,0 0,55.31375 c 0,11.85092 17.1221,11.85092 17.09085,0 l 0,-60.13043 c 0,-13.08759 -10.16324,-25.90686 -25.48233,-25.90686 l -41.61435,-0.027 z" />
        </g>
        <g
           transform="matrix(0.08313797,0,0,0.08313797,621.30867,453.17784)"
           id="svg_23-7-4">
          <path
             style="fill:#000000;stroke:#000000"
             inkscape:connector-curvature="0"
             id="svg_24-2-0"
             d="m 404.97745,331.3913 c 10.88067,0 19.70251,-8.8219 19.70251,-19.70307 0,-10.88064 -8.82184,-19.70202 -19.70251,-19.70202 -10.88117,0 -19.70206,8.82138 -19.70206,19.70202 0,10.88117 8.82089,19.70307 19.70206,19.70307 z" />
          <path
             style="fill:#000000;stroke:#000000"
             inkscape:connector-curvature="0"
             id="svg_25-2-2"
             d="m 384.85852,335.73996 c -13.95267,0 -25.173,11.37906 -25.173,25.57202 l 0,60.49231 c 0,11.76071 17.21191,11.76071 17.21191,0 l 0,-55.31375 4.07413,0 0,151.45734 c 0,15.72387 22.9198,15.26116 22.9198,0 l 0,-87.91956 3.94772,0 0,87.91956 c 0,15.26116 23.04614,15.72387 23.04614,0 l 0,-151.45734 3.97913,0 0,55.31375 c 0,11.85092 17.1221,11.85092 17.09085,0 l 0,-60.13043 c 0,-13.08759 -10.16324,-25.90686 -25.48233,-25.90686 l -41.61435,-0.027 z" />
        </g>
        <g
           transform="matrix(0.08313797,0,0,0.08313797,678.88737,424.89357)"
           id="svg_23-7-1">
          <path
             style="fill:#000000;stroke:#000000"
             inkscape:connector-curvature="0"
             id="svg_24-2-18"
             d="m 404.97745,331.3913 c 10.88067,0 19.70251,-8.8219 19.70251,-19.70307 0,-10.88064 -8.82184,-19.70202 -19.70251,-19.70202 -10.88117,0 -19.70206,8.82138 -19.70206,19.70202 0,10.88117 8.82089,19.70307 19.70206,19.70307 z" />
          <path
             style="fill:#000000;stroke:#000000"
             inkscape:connector-curvature="0"
             id="svg_25-2-8"
             d="m 384.85852,335.73996 c -13.95267,0 -25.173,11.37906 -25.173,25.57202 l 0,60.49231 c 0,11.76071 17.21191,11.76071 17.21191,0 l 0,-55.31375 4.07413,0 0,151.45734 c 0,15.72387 22.9198,15.26116 22.9198,0 l 0,-87.91956 3.94772,0 0,87.91956 c 0,15.26116 23.04614,15.72387 23.04614,0 l 0,-151.45734 3.97913,0 0,55.31375 c 0,11.85092 17.1221,11.85092 17.09085,0 l 0,-60.13043 c 0,-13.08759 -10.16324,-25.90686 -25.48233,-25.90686 l -41.61435,-0.027 z" />
        </g>
        <g
           transform="matrix(0.08313797,0,0,0.08313797,658.68431,383.47731)"
           id="svg_23-7-17">
          <path
             style="fill:#000000;stroke:#000000"
             inkscape:connector-curvature="0"
             id="svg_24-2-7"
             d="m 404.97745,331.3913 c 10.88067,0 19.70251,-8.8219 19.70251,-19.70307 0,-10.88064 -8.82184,-19.70202 -19.70251,-19.70202 -10.88117,0 -19.70206,8.82138 -19.70206,19.70202 0,10.88117 8.82089,19.70307 19.70206,19.70307 z" />
          <path
             style="fill:#000000;stroke:#000000"
             inkscape:connector-curvature="0"
             id="svg_25-2-0"
             d="m 384.85852,335.73996 c -13.95267,0 -25.173,11.37906 -25.173,25.57202 l 0,60.49231 c 0,11.76071 17.21191,11.76071 17.21191,0 l 0,-55.31375 4.07413,0 0,151.45734 c 0,15.72387 22.9198,15.26116 22.9198,0 l 0,-87.91956 3.94772,0 0,87.91956 c 0,15.26116 23.04614,15.72387 23.04614,0 l 0,-151.45734 3.97913,0 0,55.31375 c 0,11.85092 17.1221,11.85092 17.09085,0 l 0,-60.13043 c 0,-13.08759 -10.16324,-25.90686 -25.48233,-25.90686 l -41.61435,-0.027 z" />
        </g>
      </g>
      <g
         id="g4741"
         transform="translate(11.622612,4.6558062)">
        <text
           sodipodi:linespacing="125%"
           id="text3162-7"
           y="445.27679"
           x="773.03754"
           style="font-size:16px;font-style:normal;font-variant:normal;font-weight:normal;font-stretch:normal;line-height:125%;letter-spacing:0px;word-spacing:0px;fill:#000000;fill-opacity:1;stroke:none;font-family:Kreon;-inkscape-font-specification:Kreon"
           xml:space="preserve"><tspan
             style="font-size:40px;font-style:normal;font-variant:normal;font-weight:normal;font-stretch:normal;font-family:Yanone Kaffeesatz;-inkscape-font-specification:Yanone Kaffeesatz"
             y="445.27679"
             x="773.03754"
             id="tspan3164-9"
             sodipodi:role="line">Mesoscopic scale</tspan></text>
        <text
           sodipodi:linespacing="125%"
           id="text3166-0"
           y="473.92059"
           x="839.91193"
           style="font-size:16px;font-style:normal;font-variant:normal;font-weight:normal;font-stretch:normal;line-height:125%;letter-spacing:0px;word-spacing:0px;fill:#000000;fill-opacity:1;stroke:none;font-family:Kreon;-inkscape-font-specification:Kreon"
           xml:space="preserve"><tspan
             style="font-size:28px;font-style:italic;font-variant:normal;font-weight:normal;font-stretch:normal;font-family:Yanone Kaffeesatz;-inkscape-font-specification:Yanone Kaffeesatz"
             y="473.92059"
             x="839.91193"
             id="tspan3168-1"
             sodipodi:role="line">Cities</tspan></text>
      </g>
      <g
         id="g4735"
         transform="translate(0,64)">
        <text
           sodipodi:linespacing="125%"
           id="text3162-7-7"
           y="195.04323"
           x="780.60699"
           style="font-size:16px;font-style:normal;font-variant:normal;font-weight:normal;font-stretch:normal;line-height:125%;letter-spacing:0px;word-spacing:0px;fill:#000000;fill-opacity:1;stroke:none;font-family:Kreon;-inkscape-font-specification:Kreon"
           xml:space="preserve"><tspan
             style="font-size:40px;font-style:normal;font-variant:normal;font-weight:normal;font-stretch:normal;font-family:Yanone Kaffeesatz;-inkscape-font-specification:Yanone Kaffeesatz"
             y="195.04323"
             x="780.60699"
             id="tspan3164-9-2"
             sodipodi:role="line">Macroscopic scale</tspan></text>
        <text
           sodipodi:linespacing="125%"
           id="text3166-0-4"
           y="225.39799"
           x="809.92792"
           style="font-size:16px;font-style:normal;font-variant:normal;font-weight:normal;font-stretch:normal;line-height:125%;letter-spacing:0px;word-spacing:0px;fill:#000000;fill-opacity:1;stroke:none;font-family:Kreon;-inkscape-font-specification:Kreon"
           xml:space="preserve"><tspan
             style="font-size:28px;font-style:italic;font-variant:normal;font-weight:normal;font-stretch:normal;font-family:Yanone Kaffeesatz;-inkscape-font-specification:Yanone Kaffeesatz"
             y="225.39799"
             x="809.92792"
             id="tspan3168-1-9"
             sodipodi:role="line">Systems of cities</tspan></text>
      </g>
    </g>
  </g>
</svg>
